  0
SECTION
  2
HEADER
  9
$ACADVER
  1
AC1015
  9
$ACADMAINTVER
 70
     6
  9
$DWGCODEPAGE
  3
ANSI_1256
  9
$INSBASE
 10
0.0
 20
0.0
 30
0.0
  9
$EXTMIN
 10
-137.6310969017
 20
-79.5668639238
 30
0.0
  9
$EXTMAX
 10
90.7106781187
 20
60.8204055911
 30
0.0
  9
$LIMMIN
 10
0.0
 20
0.0
  9
$LIMMAX
 10
420.0
 20
297.0
  9
$ORTHOMODE
 70
     0
  9
$REGENMODE
 70
     1
  9
$FILLMODE
 70
     1
  9
$QTEXTMODE
 70
     0
  9
$MIRRTEXT
 70
     1
  9
$LTSCALE
 40
1.0
  9
$ATTMODE
 70
     1
  9
$TEXTSIZE
 40
3.5
  9
$TRACEWID
 40
1.0
  9
$TEXTSTYLE
  7
Standard
  9
$CLAYER
  8
0
  9
$CELTYPE
  6
ByLayer
  9
$CECOLOR
 62
   256
  9
$CELTSCALE
 40
1.0
  9
$DISPSILH
 70
     0
  9
$DIMSCALE
 40
1.0
  9
$DIMASZ
 40
3.302
  9
$DIMEXO
 40
1.0
  9
$DIMDLI
 40
3.75
  9
$DIMRND
 40
0.0
  9
$DIMDLE
 40
0.0
  9
$DIMEXE
 40
1.0
  9
$DIMTP
 40
0.0
  9
$DIMTM
 40
0.0
  9
$DIMTXT
 40
3.5
  9
$DIMCEN
 40
2.5
  9
$DIMTSZ
 40
0.0
  9
$DIMTOL
 70
     0
  9
$DIMLIM
 70
     0
  9
$DIMTIH
 70
     1
  9
$DIMTOH
 70
     1
  9
$DIMSE1
 70
     0
  9
$DIMSE2
 70
     0
  9
$DIMTAD
 70
     1
  9
$DIMZIN
 70
     0
  9
$DIMBLK
  1

  9
$DIMASO
 70
     1
  9
$DIMSHO
 70
     1
  9
$DIMPOST
  1

  9
$DIMAPOST
  1

  9
$DIMALT
 70
     0
  9
$DIMALTD
 70
     3
  9
$DIMALTF
 40
0.0393700787
  9
$DIMLFAC
 40
1.0
  9
$DIMTOFL
 70
     1
  9
$DIMTVP
 40
0.0
  9
$DIMTIX
 70
     0
  9
$DIMSOXD
 70
     0
  9
$DIMSAH
 70
     0
  9
$DIMBLK1
  1

  9
$DIMBLK2
  1

  9
$DIMSTYLE
  2
ISO-25
  9
$DIMCLRD
 70
     0
  9
$DIMCLRE
 70
     0
  9
$DIMCLRT
 70
     0
  9
$DIMTFAC
 40
1.0
  9
$DIMGAP
 40
1.524
  9
$DIMJUST
 70
     0
  9
$DIMSD1
 70
     0
  9
$DIMSD2
 70
     0
  9
$DIMTOLJ
 70
     0
  9
$DIMTZIN
 70
     0
  9
$DIMALTZ
 70
     0
  9
$DIMALTTZ
 70
     0
  9
$DIMUPT
 70
     0
  9
$DIMDEC
 70
     3
  9
$DIMTDEC
 70
     3
  9
$DIMALTU
 70
     2
  9
$DIMALTTD
 70
     3
  9
$DIMTXSTY
  7
Standard
  9
$DIMAUNIT
 70
     0
  9
$DIMADEC
 70
     2
  9
$DIMALTRND
 40
0.0
  9
$DIMAZIN
 70
     0
  9
$DIMDSEP
 70
    44
  9
$DIMATFIT
 70
     3
  9
$DIMFRAC
 70
     0
  9
$DIMLDRBLK
  1

  9
$DIMLUNIT
 70
     2
  9
$DIMLWD
 70
    -2
  9
$DIMLWE
 70
    -2
  9
$DIMTMOVE
 70
     0
  9
$LUNITS
 70
     2
  9
$LUPREC
 70
     2
  9
$SKETCHINC
 40
1.0
  9
$FILLETRAD
 40
10.0
  9
$AUNITS
 70
     0
  9
$AUPREC
 70
     2
  9
$MENU
  1
.
  9
$ELEVATION
 40
0.0
  9
$PELEVATION
 40
0.0
  9
$THICKNESS
 40
0.0
  9
$LIMCHECK
 70
     0
  9
$CHAMFERA
 40
10.0
  9
$CHAMFERB
 40
10.0
  9
$CHAMFERC
 40
20.0
  9
$CHAMFERD
 40
0.0
  9
$SKPOLY
 70
     0
  9
$TDCREATE
 40
2456188.051049792
  9
$TDUCREATE
 40
2456187.967716458
  9
$TDUPDATE
 40
2456188.051049803
  9
$TDUUPDATE
 40
2456187.96771647
  9
$TDINDWG
 40
0.0000000116
  9
$TDUSRTIMER
 40
0.0000000116
  9
$USRTIMER
 70
     1
  9
$ANGBASE
 50
0.0
  9
$ANGDIR
 70
     0
  9
$PDMODE
 70
     0
  9
$PDSIZE
 40
-1.0
  9
$PLINEWID
 40
0.0
  9
$SPLFRAME
 70
     0
  9
$SPLINETYPE
 70
     6
  9
$SPLINESEGS
 70
     8
  9
$HANDSEED
  5
D5
  9
$SURFTAB1
 70
     6
  9
$SURFTAB2
 70
     6
  9
$SURFTYPE
 70
     6
  9
$SURFU
 70
     6
  9
$SURFV
 70
     6
  9
$UCSBASE
  2

  9
$UCSNAME
  2

  9
$UCSORG
 10
0.0
 20
0.0
 30
0.0
  9
$UCSXDIR
 10
1.0
 20
0.0
 30
0.0
  9
$UCSYDIR
 10
0.0
 20
1.0
 30
0.0
  9
$UCSORTHOREF
  2

  9
$UCSORTHOVIEW
 70
     0
  9
$UCSORGTOP
 10
0.0
 20
0.0
 30
0.0
  9
$UCSORGBOTTOM
 10
0.0
 20
0.0
 30
0.0
  9
$UCSORGLEFT
 10
0.0
 20
0.0
 30
0.0
  9
$UCSORGRIGHT
 10
0.0
 20
0.0
 30
0.0
  9
$UCSORGFRONT
 10
0.0
 20
0.0
 30
0.0
  9
$UCSORGBACK
 10
0.0
 20
0.0
 30
0.0
  9
$PUCSBASE
  2

  9
$PUCSNAME
  2

  9
$PUCSORG
 10
0.0
 20
0.0
 30
0.0
  9
$PUCSXDIR
 10
1.0
 20
0.0
 30
0.0
  9
$PUCSYDIR
 10
0.0
 20
1.0
 30
0.0
  9
$PUCSORTHOREF
  2

  9
$PUCSORTHOVIEW
 70
     0
  9
$PUCSORGTOP
 10
0.0
 20
0.0
 30
0.0
  9
$PUCSORGBOTTOM
 10
0.0
 20
0.0
 30
0.0
  9
$PUCSORGLEFT
 10
0.0
 20
0.0
 30
0.0
  9
$PUCSORGRIGHT
 10
0.0
 20
0.0
 30
0.0
  9
$PUCSORGFRONT
 10
0.0
 20
0.0
 30
0.0
  9
$PUCSORGBACK
 10
0.0
 20
0.0
 30
0.0
  9
$USERI1
 70
     0
  9
$USERI2
 70
     0
  9
$USERI3
 70
     0
  9
$USERI4
 70
     0
  9
$USERI5
 70
     0
  9
$USERR1
 40
0.0
  9
$USERR2
 40
0.0
  9
$USERR3
 40
0.0
  9
$USERR4
 40
0.0
  9
$USERR5
 40
0.0
  9
$WORLDVIEW
 70
     1
  9
$SHADEDGE
 70
     3
  9
$SHADEDIF
 70
    70
  9
$TILEMODE
 70
     1
  9
$MAXACTVP
 70
    64
  9
$PINSBASE
 10
0.0
 20
0.0
 30
0.0
  9
$PLIMCHECK
 70
     0
  9
$PEXTMIN
 10
1.0000000000E+20
 20
1.0000000000E+20
 30
1.0000000000E+20
  9
$PEXTMAX
 10
-1.0000000000E+20
 20
-1.0000000000E+20
 30
-1.0000000000E+20
  9
$PLIMMIN
 10
0.0
 20
0.0
  9
$PLIMMAX
 10
420.0
 20
297.0
  9
$UNITMODE
 70
     0
  9
$VISRETAIN
 70
     1
  9
$PLINEGEN
 70
     0
  9
$PSLTSCALE
 70
     1
  9
$TREEDEPTH
 70
  3020
  9
$CMLSTYLE
  2
Standard
  9
$CMLJUST
 70
     0
  9
$CMLSCALE
 40
20.0
  9
$PROXYGRAPHICS
 70
     1
  9
$MEASUREMENT
 70
     1
  9
$CELWEIGHT
370
    -1
  9
$ENDCAPS
280
     0
  9
$JOINSTYLE
280
     0
  9
$LWDISPLAY
290
     1
  9
$INSUNITS
 70
     4
  9
$HYPERLINKBASE
  1

  9
$STYLESHEET
  1

  9
$XEDIT
290
     1
  9
$CEPSNTYPE
380
     0
  9
$PSTYLEMODE
290
     1
  9
$FINGERPRINTGUID
  2
{5DF6E431-2576-43CD-BC5A-A791214F820F}
  9
$VERSIONGUID
  2
{FAEB1C32-E019-11D5-929B-00C0DF256EC4}
  9
$EXTNAMES
290
     1
  9
$PSVPSCALE
 40
0.0
  9
$OLESTARTUP
290
     0
  0
ENDSEC
  0
SECTION
  2
CLASSES
  0
CLASS
  1
ACDBDICTIONARYWDFLT
  2
AcDbDictionaryWithDefault
  3
ObjectDBX Classes
 90
        0
280
     0
281
     0
  0
CLASS
  1
VISUALSTYLE
  2
AcDbVisualStyle
  3
ObjectDBX Classes
 90
     4095
280
     0
281
     0
  0
CLASS
  1
MATERIAL
  2
AcDbMaterial
  3
ObjectDBX Classes
 90
     1153
280
     0
281
     0
  0
CLASS
  1
ACDBPLACEHOLDER
  2
AcDbPlaceHolder
  3
ObjectDBX Classes
 90
        0
280
     0
281
     0
  0
CLASS
  1
LAYOUT
  2
AcDbLayout
  3
ObjectDBX Classes
 90
        0
280
     0
281
     0
  0
ENDSEC
  0
SECTION
  2
TABLES
  0
TABLE
  2
VPORT
  5
8
330
0
100
AcDbSymbolTable
 70
     1
  0
VPORT
  5
29
330
8
100
AcDbSymbolTableRecord
100
AcDbViewportTableRecord
  2
*Active
 70
     0
 10
0.0
 20
0.0
 11
1.0
 21
1.0
 12
-23.4602093915
 22
-9.3732291664
 13
0.0
 23
0.0
 14
10.0
 24
10.0
 15
10.0
 25
10.0
 16
0.0
 26
0.0
 36
1.0
 17
0.0
 27
0.0
 37
0.0
 40
143.1950149053
 41
1.6265133997
 42
50.0
 43
0.0
 44
0.0
 50
0.0
 51
0.0
 71
     0
 72
   100
 73
     1
 74
     3
 75
     0
 76
     0
 77
     0
 78
     0
281
     0
 65
     1
110
0.0
120
0.0
130
0.0
111
1.0
121
0.0
131
0.0
112
0.0
122
1.0
132
0.0
 79
     0
146
0.0
  0
ENDTAB
  0
TABLE
  2
LTYPE
  5
5
330
0
100
AcDbSymbolTable
 70
     6
  0
LTYPE
  5
14
330
5
100
AcDbSymbolTableRecord
100
AcDbLinetypeTableRecord
  2
ByBlock
 70
     0
  3

 72
    65
 73
     0
 40
0.0
  0
LTYPE
  5
15
330
5
100
AcDbSymbolTableRecord
100
AcDbLinetypeTableRecord
  2
ByLayer
 70
     0
  3

 72
    65
 73
     0
 40
0.0
  0
LTYPE
  5
16
330
5
100
AcDbSymbolTableRecord
100
AcDbLinetypeTableRecord
  2
Continuous
 70
     0
  3
Solid line
 72
    65
 73
     0
 40
0.0
  0
LTYPE
  5
3F
330
5
100
AcDbSymbolTableRecord
100
AcDbLinetypeTableRecord
  2
HIDDEN
 70
     0
  3
Hidden __ __ __ __ __ __ __ __ __ __ __ __ __ __
 72
    65
 73
     2
 40
1.905
 49
1.27
 74
     0
 49
-0.635
 74
     0
  0
LTYPE
  5
40
330
5
100
AcDbSymbolTableRecord
100
AcDbLinetypeTableRecord
  2
PHANTOM
 70
     0
  3
Phantom ______  __  __  ______  __  __  ______
 72
    65
 73
     6
 40
12.7
 49
6.35
 74
     0
 49
-1.27
 74
     0
 49
1.27
 74
     0
 49
-1.27
 74
     0
 49
1.27
 74
     0
 49
-1.27
 74
     0
  0
LTYPE
  5
41
330
5
100
AcDbSymbolTableRecord
100
AcDbLinetypeTableRecord
  2
CENTER
 70
     0
  3
Center ____ _ ____ _ ____ _ ____ _ ____ _ ____
 72
    65
 73
     4
 40
10.16
 49
6.35
 74
     0
 49
-1.27
 74
     0
 49
1.27
 74
     0
 49
-1.27
 74
     0
  0
LTYPE
  5
42
330
5
100
AcDbSymbolTableRecord
100
AcDbLinetypeTableRecord
  2
CENTERX2
 70
     0
  3
Center (2x) ________  __  ________  __  _____
 72
    65
 73
     4
 40
20.32
 49
12.7
 74
     0
 49
-2.54
 74
     0
 49
2.54
 74
     0
 49
-2.54
 74
     0
  0
LTYPE
  5
43
330
5
100
AcDbSymbolTableRecord
100
AcDbLinetypeTableRecord
  2
DOT2
 70
     0
  3
Dot (.5x) ........................................
 72
    65
 73
     2
 40
0.635
 49
0.0
 74
     0
 49
-0.635
 74
     0
  0
ENDTAB
  0
TABLE
  2
LAYER
  5
2
330
0
100
AcDbSymbolTable
 70
     1
  0
LAYER
  5
10
330
2
100
AcDbSymbolTableRecord
100
AcDbLayerTableRecord
  2
0
 70
     0
 62
     7
  6
Continuous
370
    -3
390
F
  0
ENDTAB
  0
TABLE
  2
STYLE
  5
3
330
0
100
AcDbSymbolTable
 70
     1
  0
STYLE
  5
11
330
3
100
AcDbSymbolTableRecord
100
AcDbTextStyleTableRecord
  2
Standard
 70
     0
 40
0.0
 41
1.0
 50
0.0
 71
     0
 42
2.5
  3
txt
  4

  0
ENDTAB
  0
TABLE
  2
VIEW
  5
6
330
0
100
AcDbSymbolTable
 70
     0
  0
ENDTAB
  0
TABLE
  2
UCS
  5
7
330
0
100
AcDbSymbolTable
 70
     0
  0
ENDTAB
  0
TABLE
  2
APPID
  5
9
330
0
100
AcDbSymbolTable
 70
     1
  0
APPID
  5
12
330
9
100
AcDbSymbolTableRecord
100
AcDbRegAppTableRecord
  2
ACAD
 70
     0
  0
ENDTAB
  0
TABLE
  2
DIMSTYLE
  5
A
330
0
100
AcDbSymbolTable
 70
     1
100
AcDbDimStyleTable
  0
DIMSTYLE
105
27
330
A
100
AcDbSymbolTableRecord
100
AcDbDimStyleTableRecord
  2
ISO-25
 70
     0
 41
2.5
 42
0.625
 43
3.75
 44
1.25
 73
     0
 74
     0
 77
     1
 78
     8
140
2.5
141
2.5
143
0.0393700787
147
0.625
171
     3
172
     1
178
     0
271
     2
272
     2
274
     3
278
    44
283
     0
284
     8
340
11
  0
ENDTAB
  0
TABLE
  2
BLOCK_RECORD
  5
1
330
0
100
AcDbSymbolTable
 70
     1
  0
BLOCK_RECORD
  5
1F
330
1
100
AcDbSymbolTableRecord
100
AcDbBlockTableRecord
  2
*Model_Space
340
22
  0
BLOCK_RECORD
  5
1B
330
1
100
AcDbSymbolTableRecord
100
AcDbBlockTableRecord
  2
*Paper_Space
340
1E
  0
BLOCK_RECORD
  5
23
330
1
100
AcDbSymbolTableRecord
100
AcDbBlockTableRecord
  2
*Paper_Space0
340
26
  0
ENDTAB
  0
ENDSEC
  0
SECTION
  2
BLOCKS
  0
BLOCK
  5
20
330
1F
100
AcDbEntity
  8
0
100
AcDbBlockBegin
  2
*Model_Space
 70
     0
 10
0.0
 20
0.0
 30
0.0
  3
*Model_Space
  1

  0
ENDBLK
  5
21
330
1F
100
AcDbEntity
  8
0
100
AcDbBlockEnd
  0
BLOCK
  5
1C
330
1B
100
AcDbEntity
 67
     1
  8
0
100
AcDbBlockBegin
  2
*Paper_Space
 70
     0
 10
0.0
 20
0.0
 30
0.0
  3
*Paper_Space
  1

  0
ENDBLK
  5
1D
330
1B
100
AcDbEntity
 67
     1
  8
0
100
AcDbBlockEnd
  0
BLOCK
  5
24
330
23
100
AcDbEntity
  8
0
100
AcDbBlockBegin
  2
*Paper_Space0
 70
     0
 10
0.0
 20
0.0
 30
0.0
  3
*Paper_Space0
  1

  0
ENDBLK
  5
25
330
23
100
AcDbEntity
  8
0
100
AcDbBlockEnd
  0
ENDSEC
  0
SECTION
  2
ENTITIES
  0
SPLINE
  5
44
330
1F
100
AcDbEntity
  8
0
  6
Continuous
 62
     7
370
    15
100
AcDbSpline
210
0.0
220
0.0
230
1.0
 70
     8
 71
     3
 72
    10
 73
     6
 74
     0
 42
0.00000001
 43
0.00000001
 40
0.0
 40
0.0
 40
0.0
 40
0.0
 40
0.3100229511965098
 40
0.6430537938490001
 40
1.0
 40
1.0
 40
1.0
 40
1.0
 10
-105.2656286960734
 20
-53.86585924514939
 30
0.0
 10
-106.1932651485413
 20
-54.22203958492234
 30
0.0
 10
-108.1173812108196
 20
-54.96083365775289
 30
0.0
 10
-111.1459422120413
 20
-56.00051406998973
 30
0.0
 10
-113.2715565902444
 20
-56.564467909597
 30
0.0
 10
-114.371201845627
 20
-56.85621845962068
 30
0.0
  0
SPLINE
  5
48
330
1F
100
AcDbEntity
  8
0
  6
Continuous
 62
     7
370
    15
100
AcDbSpline
210
0.0
220
0.0
230
1.0
 70
     8
 71
     3
 72
    27
 73
    23
 74
     0
 42
0.00000001
 43
0.00000001
 40
0.0
 40
0.0
 40
0.0
 40
0.0
 40
0.0385128550199269
 40
0.0799924815308164
 40
0.1235401168299005
 40
0.169672608368992
 40
0.2188698739566701
 40
0.2714992735467044
 40
0.3277017566072759
 40
0.3872578116325334
 40
0.4495022441532822
 40
0.5133815978844012
 40
0.5776572746771089
 40
0.640934970561591
 40
0.7019293556535022
 40
0.75978503858815
 40
0.8139621852442657
 40
0.8643264003533212
 40
0.9111169190929493
 40
0.9548136749644182
 40
0.9959978538788687
 40
0.9999999999999999
 40
0.9999999999999999
 40
0.9999999999999999
 40
0.9999999999999999
 10
14.23103483154805
 20
26.24177857727535
 30
0.0
 10
14.22823657776468
 20
26.22513726746638
 30
0.0
 10
14.22242451153466
 20
26.19057271319343
 30
0.0
 10
14.14630233706963
 20
25.89429418546502
 30
0.0
 10
13.98403370621698
 20
25.42359693490439
 30
0.0
 10
13.70105032665863
 20
24.76994719162747
 30
0.0
 10
13.2650793985862
 20
23.95600412381403
 30
0.0
 10
12.64339037939573
 20
23.00669020108975
 30
0.0
 10
11.81000909688774
 20
21.96329029428049
 30
0.0
 10
10.75336287778197
 20
20.88195283908466
 30
0.0
 10
9.485149400909814
 20
19.83091700559576
 30
0.0
 10
8.045012109103796
 20
18.88005898452998
 30
0.0
 10
6.499243878058392
 20
18.08828190293513
 30
0.0
 10
4.931947798187772
 20
17.49178560437829
 30
0.0
 10
3.430193681757211
 20
17.09778043036577
 30
0.0
 10
2.069606820561312
 20
16.88654805261713
 30
0.0
 10
0.9030498189357035
 20
16.82007358771621
 30
0.0
 10
-0.0375949594776936
 20
16.85124624272408
 30
0.0
 10
-0.7529372155783663
 20
16.93674745298702
 30
0.0
 10
-1.221686389472582
 20
17.02862727379555
 30
0.0
 10
-1.45938312405337
 20
17.09535089318388
 30
0.0
 10
-1.486844541003122
 20
17.10446007606074
 30
0.0
 10
-1.489276794638259
 20
17.10526687504004
 30
0.0
  0
SPLINE
  5
49
330
1F
100
AcDbEntity
  8
0
  6
Continuous
 62
     7
370
    15
100
AcDbSpline
210
0.0
220
0.0
230
1.0
 70
     8
 71
     3
 72
    10
 73
     6
 74
     0
 42
0.00000001
 43
0.00000001
 40
0.0
 40
0.0
 40
0.0
 40
0.0
 40
0.0444257582747865
 40
0.8437164804888223
 40
1.0
 40
1.0
 40
1.0
 40
1.0
 10
29.69485991105769
 20
-0.7546090497701323
 30
0.0
 10
29.70064818386616
 20
-0.7560084040350128
 30
0.0
 10
29.81057677826108
 20
-0.7825843883551287
 30
0.0
 10
29.85978099583992
 20
-0.8069488339018244
 30
0.0
 10
29.83471154341048
 20
-0.7964157924485599
 30
0.0
 10
29.83061145145863
 20
-0.7946931206585586
 30
0.0
  0
SPLINE
  5
4A
330
1F
100
AcDbEntity
  8
0
  6
Continuous
 62
     7
370
    15
100
AcDbSpline
210
0.0
220
0.0
230
1.0
 70
     8
 71
     3
 72
    24
 73
    20
 74
     0
 42
0.00000001
 43
0.00000001
 40
0.0
 40
0.0
 40
0.0
 40
0.0
 40
0.020070782511909
 40
0.0714607606174008
 40
0.1261824048585923
 40
0.1846970770543456
 40
0.2472486017340831
 40
0.3137126530781038
 40
0.3834743193834741
 40
0.4554419846500406
 40
0.5282431126657917
 40
0.6003952373389467
 40
0.6702676917702922
 40
0.7368183014606827
 40
0.7993257610908227
 40
0.857510677826171
 40
0.9115416211755668
 40
0.9619054039327901
 40
1.0
 40
1.0
 40
1.0
 40
1.0
 10
14.2020581694221
 20
-9.39686479562329
 30
0.0
 10
14.21949455964212
 20
-9.34217854948758
 30
0.0
 10
14.28157573195342
 20
-9.14747160461139
 30
0.0
 10
14.49680182465458
 20
-8.628263595683084
 30
0.0
 10
14.88314548753819
 20
-7.864705003145699
 30
0.0
 10
15.45310839616191
 20
-6.945909587572829
 30
0.0
 10
16.22689639298417
 20
-5.923838244311681
 30
0.0
 10
17.22333776803677
 20
-4.846160474518623
 30
0.0
 10
18.43702638355421
 20
-3.77993670453282
 30
0.0
 10
19.83615328984529
 20
-2.795504258602555
 30
0.0
 10
21.36133500001661
 20
-1.955895587828453
 30
0.0
 10
22.9317155323788
 20
-1.304616904352841
 30
0.0
 10
24.45949480359591
 20
-0.8567698950365781
 30
0.0
 10
25.86468969454
 20
-0.599400553930738
 30
0.0
 10
27.08680554850683
 20
-0.4980808099112992
 30
0.0
 10
28.09261198903841
 20
-0.5080645123897356
 30
0.0
 10
28.85997330128566
 20
-0.581364041708667
 30
0.0
 10
29.38892096103049
 20
-0.6748774738039361
 30
0.0
 10
29.57039365978209
 20
-0.7227270157943201
 30
0.0
 10
29.64854486770654
 20
-0.7433334184703423
 30
0.0
  0
SPLINE
  5
50
330
1F
100
AcDbEntity
  8
0
  6
Continuous
 62
     7
370
    15
100
AcDbSpline
210
0.0
220
0.0
230
1.0
 70
     8
 71
     3
 72
     9
 73
     5
 74
     0
 42
0.00000001
 43
0.00000001
 40
0.0
 40
0.0
 40
0.0
 40
0.0
 40
0.5021361975824383
 40
1.0
 40
1.0
 40
1.0
 40
1.0
 10
-98.4040725357667
 20
-60.43280265985833
 30
0.0
 10
-101.3250226753929
 20
-62.95777864410582
 30
0.0
 10
-108.7650476933141
 20
-68.3718426327411
 30
0.0
 10
-119.3966100919567
 20
-74.51107017156684
 30
0.0
 10
-125.5114536606124
 20
-77.76273995104988
 30
0.0
  0
SPLINE
  5
52
330
1F
100
AcDbEntity
  8
0
  6
Continuous
 62
     7
370
    15
100
AcDbSpline
210
0.0
220
0.0
230
1.0
 70
     8
 71
     3
 72
    13
 73
     9
 74
     0
 42
0.00000001
 43
0.00000001
 40
0.0
 40
0.0
 40
0.0
 40
0.0
 40
0.1836291582984732
 40
0.3616738347856521
 40
0.5363572570044903
 40
0.7100040710993187
 40
0.8932294581413791
 40
1.0
 40
1.0
 40
1.0
 40
1.0
 10
-136.1180553784107
 20
-71.63967911237957
 30
0.0
 10
-135.1448229509055
 20
-70.33760941287976
 30
0.0
 10
-133.2279557852815
 20
-67.77306821615517
 30
0.0
 10
-129.8084964108605
 20
-64.46824501697704
 30
0.0
 10
-126.0557671080775
 20
-61.65477412704338
 30
0.0
 10
-121.851174762603
 20
-59.35646627958526
 30
0.0
 10
-117.9185693145484
 20
-57.74753082883511
 30
0.0
 10
-115.2700761082963
 20
-57.14123938036889
 30
0.0
 10
-114.2949553339724
 20
-56.91801532780243
 30
0.0
  0
SPLINE
  5
53
330
1F
100
AcDbEntity
  8
0
  6
Continuous
 62
     7
370
    15
100
AcDbSpline
210
0.0
220
0.0
230
1.0
 70
     8
 71
     3
 72
    18
 73
    14
 74
     0
 42
0.00000001
 43
0.00000001
 40
0.0
 40
0.0
 40
0.0
 40
0.0
 40
0.0772774121330123
 40
0.1732050522343849
 40
0.2691326923357574
 40
0.3650603324371309
 40
0.4609879725385035
 40
0.5569156126398769
 40
0.6528432527412495
 40
0.7487708928426227
 40
0.8446985329439953
 40
0.9406261730453683
 40
1.0
 40
1.0
 40
1.0
 40
1.0
 10
-98.40407253401901
 20
-60.43280266931102
 30
0.0
 10
-98.46612505553875
 20
-60.14870334688445
 30
0.0
 10
-98.60520593227157
 20
-59.51193981375851
 30
0.0
 10
-98.981837457617
 20
-58.49918650670497
 30
0.0
 10
-99.5106826564441
 20
-57.44614747362057
 30
0.0
 10
-100.158331548904
 20
-56.4591954320309
 30
0.0
 10
-100.8963815292698
 20
-55.57745684741094
 30
0.0
 10
-101.6975121636828
 20
-54.83429890496735
 30
0.0
 10
-102.5302806212036
 20
-54.25915243211703
 30
0.0
 10
-103.3642649838004
 20
-53.87115078155536
 30
0.0
 10
-104.1617479029851
 20
-53.69620976950439
 30
0.0
 10
-104.8177278187444
 20
-53.69951941062629
 30
0.0
 10
-105.1561233874284
 20
-53.84649964701268
 30
0.0
 10
-105.2854965370717
 20
-53.90269215624254
 30
0.0
  0
SPLINE
  5
54
330
1F
100
AcDbEntity
  8
0
  6
Continuous
 62
     7
370
    15
100
AcDbSpline
210
0.0
220
0.0
230
1.0
 70
     8
 71
     3
 72
     9
 73
     5
 74
     0
 42
0.00000001
 43
0.00000001
 40
0.0
 40
0.0
 40
0.0
 40
0.0
 40
0.5021361975824383
 40
1.0
 40
1.0
 40
1.0
 40
1.0
 10
-98.4040725357667
 20
-62.71062598058222
 30
0.0
 10
-101.3250226753929
 20
-67.63565552463774
 30
0.0
 10
-108.7650476933141
 20
-75.34233318260411
 30
0.0
 10
-119.3966100919567
 20
-78.75911925413051
 30
0.0
 10
-125.5114536606124
 20
-79.39582157482138
 30
0.0
  0
LWPOLYLINE
  5
5C
330
1F
100
AcDbEntity
  8
0
  6
Continuous
 62
     7
370
    15
100
AcDbPolyline
 90
        3
 70
   128
 43
0.0
 10
-98.9663043486
 20
-63.9047634043
 10
-98.6661422637
 20
-63.4427009139
 10
-98.404072535
 20
-62.7106259774
  0
LWPOLYLINE
  5
5F
330
1F
100
AcDbEntity
  8
0
  6
Continuous
 62
     7
370
    15
100
AcDbPolyline
 90
       14
 70
   128
 43
0.0
 10
0.7071067812
 20
-4.490244615
 10
0.6304367369
 20
-3.5187957523
 10
0.4031976593
 20
-2.4939362336
 10
0.0336025606
 20
-1.4527071523
 10
-0.4649904292
 20
-0.4327412403
 10
-1.0745608605
 20
0.5290972769
 10
-1.7730772697
 20
1.3980450493
 10
-2.5352934538
 20
2.1426960403
 10
-3.3336609339
 20
2.7361366229
 10
-4.1393246292
 20
3.1569183083
 10
-4.9231657546
 20
3.38983295
 10
-5.6568542495
 20
3.4264624061
 10
-6.3138727002
 20
3.2654827925
 10
-6.5352901038
 20
3.1552728947
  0
LWPOLYLINE
  5
62
330
1F
100
AcDbEntity
  8
0
  6
Continuous
 62
     7
370
    15
100
AcDbPolyline
 90
       10
 70
   128
 43
0.0
 10
-7.7781745931
 20
15.9868098562
 10
-6.9438516051
 20
14.8247322567
 10
-6.0291417266
 20
13.7717974353
 10
-5.055618851
 20
12.8528393904
 10
-4.046244006
 20
12.0895322105
 10
-3.0248238059
 20
11.4998788801
 10
-2.0154489609
 20
11.0977866701
 10
-1.0419260853
 20
10.8927391281
 10
-0.1272162068
 20
10.8895724035
 10
0.7071067812
 20
11.0883611853
  0
LWPOLYLINE
  5
66
330
1F
100
AcDbEntity
  8
0
  6
Continuous
 62
     7
370
    15
100
AcDbPolyline
 90
       10
 70
   128
 43
0.0
 10
10.5610390685
 20
-8.868953979
 10
9.8009177193
 20
-9.2180244398
 10
9.15423355
 20
-9.7576941582
 10
8.6362389328
 20
-10.4752347518
 10
8.2591510316
 20
-11.3537226641
 10
8.0318636547
 20
-12.372438315
 10
7.9597374894
 20
-13.5073547826
 10
8.0444736677
 20
-14.7317044899
 10
8.284073644
 20
-16.0166105323
 10
8.6728863322
 20
-17.3317677531
  0
LWPOLYLINE
  5
68
330
1F
100
AcDbEntity
  8
0
  6
Continuous
 62
     7
370
    15
100
AcDbPolyline
 90
       10
 70
   128
 43
0.0
 10
6.1403649282
 20
-19.5369339277
 10
5.1330040152
 20
-18.7603710187
 10
4.1116621157
 20
-18.1561584715
 10
3.1004280931
 20
-17.7385469437
 10
2.1231524114
 20
-17.5173860136
 10
1.2028846101
 20
-17.4978918731
 10
0.3613296689
 20
-17.6805243013
 10
-0.3816639146
 20
-18.0609758205
 10
-1.0085722625
 20
-18.6302732897
 10
-1.5046094253
 20
-19.3749895414
  0
LWPOLYLINE
  5
6D
330
1F
100
AcDbEntity
  8
0
  6
Continuous
 62
     7
370
    15
100
AcDbPolyline
 90
       10
 70
   128
 43
0.0
 10
-16.728260456
 20
11.4576966096
 10
-15.7473818012
 20
11.2204561991
 10
-14.8216971698
 20
11.1846376314
 10
-13.9730393003
 20
11.3510857055
 10
-13.2214242162
 20
11.7158746597
 10
-12.584579138
 20
12.2704007627
 10
-12.0775243779
 20
13.0015852368
 10
-11.7122190778
 20
13.8921827279
 10
-11.4972791474
 20
14.9211880452
 10
-11.4377740532
 20
16.0643315798
  0
SPLINE
  5
70
330
1F
100
AcDbEntity
  8
0
  6
Continuous
 62
     7
370
    15
100
AcDbSpline
210
0.0
220
0.0
230
1.0
 70
     8
 71
     3
 72
    30
 73
    26
 74
     0
 42
0.00000001
 43
0.00000001
 40
0.0
 40
0.0
 40
0.0
 40
0.0
 40
0.1250000000000006
 40
0.1250000000000006
 40
0.2500000000000012
 40
0.2500000000000012
 40
0.3750000000000018
 40
0.3750000000000018
 40
0.4375000000000021
 40
0.4375000000000021
 40
0.4687500000000022
 40
0.4687500000000022
 40
0.5000000000000022
 40
0.5000000000000022
 40
0.562500000000002
 40
0.562500000000002
 40
0.6250000000000017
 40
0.6250000000000017
 40
0.6875000000000014
 40
0.6875000000000014
 40
0.7500000000000012
 40
0.7500000000000012
 40
0.8750000000000007
 40
0.8750000000000007
 40
1.0
 40
1.0
 40
1.0
 40
1.0
 10
13.19272655001864
 20
-1.733280963284376
 30
0.0
 10
13.17910696957992
 20
-1.278748368556539
 30
0.0
 10
13.1708519854782
 20
-0.8021296078287409
 30
0.0
 10
13.14615774770382
 20
0.1982770400929326
 30
0.0
 10
13.13041379024696
 20
0.7216470461376255
 30
0.0
 10
13.05375421971782
 20
1.831829702523069
 30
0.0
 10
12.99295431072225
 20
2.424980693297352
 30
0.0
 10
12.80770496909713
 20
3.343567977926969
 30
0.0
 10
12.72857957880811
 20
3.658580496680679
 30
0.0
 10
12.57851579014894
 20
4.122412502007485
 30
0.0
 10
12.52318984890636
 20
4.276163360238795
 30
0.0
 10
12.40046221057276
 20
4.581649486453907
 30
0.0
 10
12.33242746313005
 20
4.734530266230686
 30
0.0
 10
12.11488808573173
 20
5.176642583669776
 30
0.0
 10
11.95123814906962
 20
5.451954292691652
 30
0.0
 10
11.59199981123687
 20
5.968606935307029
 30
0.0
 10
11.40118676113369
 20
6.203199662399616
 30
0.0
 10
11.0135809344076
 20
6.630508238005798
 30
0.0
 10
10.81424934917151
 20
6.82612586477359
 30
0.0
 10
10.41747614538589
 20
7.186292026296283
 30
0.0
 10
10.22118405280415
 20
7.350022915701785
 30
0.0
 10
9.641152211300426
 20
7.808985681574844
 30
0.0
 10
9.266292059127958
 20
8.072844951733419
 30
0.0
 10
8.55122531374065
 20
8.558566244836774
 30
0.0
 10
8.214260643023
 20
8.777477280250372
 30
0.0
 10
7.902240147279038
 20
8.98161958940027
 30
0.0
  0
SPLINE
  5
72
330
1F
100
AcDbEntity
  8
0
  6
Continuous
 62
     7
370
    15
100
AcDbSpline
210
0.0
220
0.0
230
1.0
 70
     8
 71
     3
 72
    30
 73
    26
 74
     0
 42
0.00000001
 43
0.00000001
 40
0.0
 40
0.0
 40
0.0
 40
0.0
 40
0.1250000000000003
 40
0.1250000000000003
 40
0.2500000000000006
 40
0.2500000000000006
 40
0.3750000000000008
 40
0.3750000000000008
 40
0.4375000000000009
 40
0.4375000000000009
 40
0.4687500000000011
 40
0.4687500000000011
 40
0.5000000000000011
 40
0.5000000000000011
 40
0.562500000000001
 40
0.562500000000001
 40
0.625000000000001
 40
0.625000000000001
 40
0.6875000000000009
 40
0.6875000000000009
 40
0.7500000000000008
 40
0.7500000000000008
 40
0.8750000000000003
 40
0.8750000000000003
 40
1.0
 40
1.0
 40
1.0
 40
1.0
 10
12.20842023817583
 20
-15.29074747355199
 30
0.0
 10
12.37362125103913
 20
-14.67040629320586
 30
0.0
 10
12.56024849950055
 20
-14.05498037170768
 30
0.0
 10
12.96350817426686
 20
-12.82862804582893
 30
0.0
 10
13.18037432483679
 20
-12.21785196230658
 30
0.0
 10
13.62706057052974
 20
-10.99191897851186
 30
0.0
 10
13.85995524208389
 20
-10.37024389228213
 30
0.0
 10
14.17261951193554
 20
-9.476837976275224
 30
0.0
 10
14.27154590177881
 20
-9.182044493494208
 30
0.0
 10
14.39829054596618
 20
-8.768762066558507
 30
0.0
 10
14.43715610945149
 20
-8.635222015823425
 30
0.0
 10
14.50707005401691
 20
-8.37746383982081
 30
0.0
 10
14.53828107304634
 20
-8.252378095003143
 30
0.0
 10
14.61662083245961
 20
-7.902750343184795
 30
0.0
 10
14.64922264401982
 20
-7.701341315448971
 30
0.0
 10
14.68088528879628
 20
-7.355146036216899
 30
0.0
 10
14.67960935851364
 20
-7.214946012199671
 30
0.0
 10
14.65559795924269
 20
-6.987797385046809
 30
0.0
 10
14.63276108331212
 20
-6.899283450840448
 30
0.0
 10
14.57585522068782
 20
-6.762200701951729
 30
0.0
 10
14.54204405891334
 20
-6.713744060890957
 30
0.0
 10
14.43454878050368
 20
-6.612178961189326
 30
0.0
 10
14.35522208563236
 20
-6.601952003985083
 30
0.0
 10
14.2107344598603
 20
-6.659264356630128
 30
0.0
 10
14.14587314167324
 20
-6.727305808846124
 30
0.0
 10
14.09657297445353
 20
-6.827933699429507
 30
0.0
  0
SPLINE
  5
75
330
1F
100
AcDbEntity
  8
0
  6
Continuous
 62
     7
370
    15
100
AcDbSpline
210
0.0
220
0.0
230
1.0
 70
     8
 71
     3
 72
    30
 73
    26
 74
     0
 42
0.00000001
 43
0.00000001
 40
0.0
 40
0.0
 40
0.0
 40
0.0
 40
0.1249999999999998
 40
0.1249999999999998
 40
0.2499999999999996
 40
0.2499999999999996
 40
0.3749999999999994
 40
0.3749999999999994
 40
0.4374999999999993
 40
0.4374999999999993
 40
0.4687499999999993
 40
0.4687499999999993
 40
0.4999999999999993
 40
0.4999999999999993
 40
0.5624999999999993
 40
0.5624999999999993
 40
0.6249999999999993
 40
0.6249999999999993
 40
0.6874999999999993
 40
0.6874999999999993
 40
0.7499999999999993
 40
0.7499999999999993
 40
0.8749999999999997
 40
0.8749999999999997
 40
1.0
 40
1.0
 40
1.0
 40
1.0
 10
4.242640687119277
 20
13.12938146482461
 30
0.0
 10
4.299681291920296
 20
13.21393478923704
 30
0.0
 10
4.340068657553698
 20
13.32983797285053
 30
0.0
 10
4.368792601521496
 20
13.61812771432915
 30
0.0
 10
4.358113006578121
 20
13.79034586087543
 30
0.0
 10
4.238072194309991
 20
14.19254102608469
 30
0.0
 10
4.128260100530922
 20
14.42533497815534
 30
0.0
 10
3.810128303482981
 20
14.80758704391994
 30
0.0
 10
3.675892090802008
 20
14.94218350079062
 30
0.0
 10
3.427207697851081
 20
15.14492162829446
 30
0.0
 10
3.336285558669653
 20
15.21288140559014
 30
0.0
 10
3.136428071247852
 20
15.3493908442986
 30
0.0
 10
3.026486419029931
 20
15.41846998923188
 30
0.0
 10
2.67749782382605
 20
15.62050423615084
 30
0.0
 10
2.418156596668469
 20
15.74931544245384
 30
0.0
 10
1.852571962698741
 20
15.99775233529187
 30
0.0
 10
1.553756944995842
 20
16.11420566699061
 30
0.0
 10
0.9460472425528375
 20
16.33424154557405
 30
0.0
 10
0.6331418778918984
 20
16.43933096384323
 30
0.0
 10
0.0062642975586016
 20
16.64225183221958
 30
0.0
 10
-0.3058733106991313
 20
16.73955630054179
 30
0.0
 10
-1.237810741616642
 20
17.02780188063559
 30
0.0
 10
-1.853144652526881
 20
17.21543209897656
 30
0.0
 10
-3.068610071731807
 20
17.60809705477628
 30
0.0
 10
-3.66315716036723
 20
17.81101712803315
 30
0.0
 10
-4.242640687119287
 20
18.02783013576086
 30
0.0
  0
SPLINE
  5
79
330
1F
100
AcDbEntity
  8
0
  6
Continuous
 62
     7
370
    15
100
AcDbSpline
210
0.0
220
0.0
230
1.0
 70
     8
 71
     3
 72
    30
 73
    26
 74
     0
 42
0.00000001
 43
0.00000001
 40
0.0
 40
0.0
 40
0.0
 40
0.0
 40
0.1249999999999998
 40
0.1249999999999998
 40
0.2499999999999996
 40
0.2499999999999996
 40
0.3749999999999993
 40
0.3749999999999993
 40
0.4374999999999996
 40
0.4374999999999996
 40
0.4687499999999995
 40
0.4687499999999995
 40
0.4999999999999994
 40
0.4999999999999994
 40
0.5624999999999993
 40
0.5624999999999993
 40
0.6249999999999992
 40
0.6249999999999992
 40
0.6874999999999991
 40
0.6874999999999991
 40
0.749999999999999
 40
0.749999999999999
 40
0.8749999999999996
 40
0.8749999999999996
 40
1.0
 40
1.0
 40
1.0
 40
1.0
 10
24.04163056034269
 20
34.35599237221503
 30
0.0
 10
23.98458995554164
 20
33.77281566218156
 30
0.0
 10
23.94420258990821
 20
33.20763851360566
 30
0.0
 10
23.91547864594045
 20
32.10997858356485
 30
0.0
 10
23.92615824088387
 20
31.57738838391115
 30
0.0
 10
24.04619905315226
 20
30.54618572055831
 30
0.0
 10
24.15601114693155
 20
30.04226643457407
 30
0.0
 10
24.47414294398009
 20
29.36560527870436
 30
0.0
 10
24.60837915666132
 20
29.15092766063617
 30
0.0
 10
24.85706354961268
 20
28.86664457417375
 30
0.0
 10
24.94798568879426
 20
28.77770024297377
 30
0.0
 10
25.1478431762164
 20
28.61263691303357
 30
0.0
 10
25.25778482843452
 20
28.53605194917775
 30
0.0
 10
25.60677342363888
 20
28.33325640919736
 30
0.0
 10
25.86611465079678
 20
28.2321605051812
 30
0.0
 10
26.43169928476717
 20
28.09118245060787
 30
0.0
 10
26.73051430247023
 20
28.05321838131293
 30
0.0
 10
27.33822400491364
 20
28.02663148140052
 30
0.0
 10
27.65112936957484
 20
28.0377865659349
 30
0.0
 10
28.27800694990841
 20
28.09654901920056
 30
0.0
 10
28.59014455816627
 20
28.14372677101022
 30
0.0
 10
29.52208198908417
 20
28.32544421850493
 30
0.0
 10
30.13741589999465
 20
28.49939208668198
 30
0.0
 10
31.35288131920005
 20
28.92469789574057
 30
0.0
 10
31.94742840783561
 20
29.17474209224835
 30
0.0
 10
32.52691193458784
 20
29.45754370128197
 30
0.0
  0
SPLINE
  5
7B
330
1F
100
AcDbEntity
  8
0
  6
Continuous
 62
     7
370
    15
100
AcDbSpline
210
0.0
220
0.0
230
1.0
 70
     8
 71
     3
 72
    30
 73
    26
 74
     0
 42
0.00000001
 43
0.00000001
 40
0.0
 40
0.0
 40
0.0
 40
0.0
 40
0.1249999999999993
 40
0.1249999999999993
 40
0.2499999999999989
 40
0.2499999999999989
 40
0.3749999999999984
 40
0.3749999999999984
 40
0.4374999999999985
 40
0.4374999999999985
 40
0.4687499999999984
 40
0.4687499999999984
 40
0.4999999999999984
 40
0.4999999999999984
 40
0.5624999999999986
 40
0.5624999999999986
 40
0.6249999999999987
 40
0.6249999999999987
 40
0.6874999999999988
 40
0.6874999999999988
 40
0.7499999999999989
 40
0.7499999999999989
 40
0.8749999999999994
 40
0.8749999999999994
 40
1.0
 40
1.0
 40
1.0
 40
1.0
 10
36.18651139474103
 20
25.30978182585441
 30
0.0
 10
35.8625383601867
 20
24.73925063990907
 30
0.0
 10
35.56661274476961
 20
24.15811385504993
 30
0.0
 10
35.04332354011957
 20
22.96941734935925
 30
0.0
 10
34.81507790704956
 20
22.362211339144
 30
0.0
 10
34.4658684821149
 20
21.10569822418141
 30
0.0
 10
34.34310313976488
 20
20.44947319561714
 30
0.0
 10
34.32902295685749
 20
19.46239540917658
 30
0.0
 10
34.35392942646974
 20
19.12875292736841
 30
0.0
 10
34.44878324064835
 20
18.64595040533348
 30
0.0
 10
34.4899015948001
 20
18.48731775385007
 30
0.0
 10
34.59329678526485
 20
18.17518899421164
 30
0.0
 10
34.65624968966193
 20
18.02056209644447
 30
0.0
 10
34.87327370255018
 20
17.57827242755418
 30
0.0
 10
35.05568828739263
 20
17.3094083186006
 30
0.0
 10
35.48768140645972
 20
16.81775474735435
 30
0.0
 10
35.73163569863609
 20
16.60142141188197
 30
0.0
 10
36.25021600469663
 20
16.21911632952601
 30
0.0
 10
36.52825072081088
 20
16.0505416040307
 30
0.0
 10
37.10219656871904
 20
15.75125272795509
 30
0.0
 10
37.3963102850002
 20
15.62113381561243
 30
0.0
 10
38.29453030409218
 20
15.27150209175103
 30
0.0
 10
38.91419657478964
 20
15.0917595006267
 30
0.0
 10
40.1830695555169
 20
14.79632900344692
 30
0.0
 10
40.82671357636745
 20
14.68279443652587
 30
0.0
 10
41.4769977974806
 20
14.59488127316976
 30
0.0
  0
SPLINE
  5
7D
330
1F
100
AcDbEntity
  8
0
  6
Continuous
 62
     7
370
    15
100
AcDbSpline
210
0.0
220
0.0
230
1.0
 70
     8
 71
     3
 72
    30
 73
    26
 74
     0
 42
0.00000001
 43
0.00000001
 40
0.0
 40
0.0
 40
0.0
 40
0.0
 40
0.1250000000000001
 40
0.1250000000000001
 40
0.2500000000000002
 40
0.2500000000000002
 40
0.3750000000000002
 40
0.3750000000000002
 40
0.4375
 40
0.4375
 40
0.4687499999999999
 40
0.4687499999999999
 40
0.4999999999999998
 40
0.4999999999999998
 40
0.5624999999999997
 40
0.5624999999999997
 40
0.6249999999999998
 40
0.6249999999999998
 40
0.6874999999999998
 40
0.6874999999999998
 40
0.7499999999999998
 40
0.7499999999999998
 40
0.8749999999999999
 40
0.8749999999999999
 40
1.0
 40
1.0
 40
1.0
 40
1.0
 10
42.3808442219155
 20
9.500228537024627
 30
0.0
 10
41.79467213684735
 20
9.233862925266642
 30
0.0
 10
41.22873788394529
 20
8.937379138825635
 30
0.0
 10
40.14215398910599
 20
8.28560329884062
 30
0.0
 10
39.62103774926208
 20
7.930657379086244
 30
0.0
 10
38.64330147953432
 20
7.151260384621905
 30
0.0
 10
38.18150474319365
 20
6.722058710186068
 30
0.0
 10
37.62028071079886
 20
6.037655476509621
 30
0.0
 10
37.45374447098682
 20
5.799712064113486
 30
0.0
 10
37.25815414126668
 20
5.444318865892884
 30
0.0
 10
37.20157201973054
 20
5.325675868954437
 30
0.0
 10
37.10755097839803
 20
5.088188262234514
 30
0.0
 10
37.07000304712031
 20
4.968430940827125
 30
0.0
 10
36.99102055339954
 20
4.619343635269746
 30
0.0
 10
36.98181784596588
 20
4.398259357298118
 30
0.0
 10
37.0408791095871
 20
3.975778439503275
 30
0.0
 10
37.10842090285062
 20
3.779858443080911
 30
0.0
 10
37.29575481429475
 20
3.415379289136844
 30
0.0
 10
37.41673304178289
 20
3.244342723297726
 30
0.0
 10
37.69456939356277
 20
2.921489500661965
 30
0.0
 10
37.85036206859429
 20
2.770464112332514
 30
0.0
 10
38.3546314360773
 20
2.335269594711085
 30
0.0
 10
38.73922643395376
 20
2.068356303782724
 30
0.0
 10
39.57429945913632
 20
1.544986572657324
 30
0.0
 10
40.02158338286521
 20
1.291466121513502
 30
0.0
 10
40.49269148563779
 20
1.037414762902176
 30
0.0
  0
SPLINE
  5
7F
330
1F
100
AcDbEntity
  8
0
  6
Continuous
 62
     7
370
    15
100
AcDbSpline
210
0.0
220
0.0
230
1.0
 70
     8
 71
     3
 72
    14
 73
    10
 74
     0
 42
0.00000001
 43
0.00000001
 40
0.0
 40
0.0
 40
0.0
 40
0.0
 40
0.2085500297876442
 40
0.4223790175264637
 40
0.5607773740638189
 40
0.6751910805178354
 40
0.790108811864729
 40
0.9374336645039512
 40
1.0
 40
1.0
 40
1.0
 40
1.0
 10
37.96017008164129
 20
-1.167751411669842
 30
0.0
 10
37.18151225624637
 20
-1.068450461739298
 30
0.0
 10
35.60448669736974
 20
-0.8673349897644622
 30
0.0
 10
33.48374216077821
 20
-0.8053735447385076
 30
0.0
 10
31.79951627956723
 20
-0.7995642079224995
 30
0.0
 10
30.65229043449996
 20
-0.7955296487815438
 30
0.0
 10
29.88990299776815
 20
-0.7694016396022629
 30
0.0
 10
29.613500766741
 20
-0.7317721334065848
 30
0.0
 10
29.63930828688108
 20
-0.7371554547776459
 30
0.0
 10
29.64700123472585
 20
-0.7387601657422999
 30
0.0
  0
SPLINE
  5
80
330
1F
100
AcDbEntity
  8
0
  6
Continuous
 62
     7
370
    15
100
AcDbSpline
210
0.0
220
0.0
230
1.0
 70
     8
 71
     3
 72
    10
 73
     6
 74
     0
 42
0.00000001
 43
0.00000001
 40
0.0
 40
0.0
 40
0.0
 40
0.0
 40
0.1330296560361284
 40
0.5332689653962231
 40
1.0
 40
1.0
 40
1.0
 40
1.0
 10
29.64937457374171
 20
-0.7398105260979192
 30
0.0
 10
29.64790335912769
 20
-0.7396965067076166
 30
0.0
 10
29.64200577870485
 20
-0.739239443191755
 30
0.0
 10
29.87704759912461
 20
-0.7987451928053793
 30
0.0
 10
30.16186505538178
 20
-0.9333453897382056
 30
0.0
 10
30.31519572806009
 20
-1.00580702537514
 30
0.0
  0
SPLINE
  5
82
330
1F
100
AcDbEntity
  8
0
  6
Continuous
 62
     7
370
    15
100
AcDbSpline
210
0.0
220
0.0
230
1.0
 70
     8
 71
     3
 72
    30
 73
    26
 74
     0
 42
0.00000001
 43
0.00000001
 40
0.0
 40
0.0
 40
0.0
 40
0.0
 40
0.1249999999999998
 40
0.1249999999999998
 40
0.2499999999999997
 40
0.2499999999999997
 40
0.3749999999999995
 40
0.3749999999999995
 40
0.4374999999999993
 40
0.4374999999999993
 40
0.4687499999999993
 40
0.4687499999999993
 40
0.4999999999999993
 40
0.4999999999999993
 40
0.5624999999999996
 40
0.5624999999999996
 40
0.6249999999999999
 40
0.6249999999999999
 40
0.6875000000000003
 40
0.6875000000000003
 40
0.7500000000000007
 40
0.7500000000000007
 40
0.8750000000000003
 40
0.8750000000000003
 40
1.0
 40
1.0
 40
1.0
 40
1.0
 10
15.0915446974434
 20
29.82687912563091
 30
0.0
 10
15.10516427788212
 20
29.5320991751012
 30
0.0
 10
15.11341926198382
 20
29.27147634456012
 30
0.0
 10
15.13811349975822
 20
28.82425800575765
 30
0.0
 10
15.15385745721507
 20
28.63697247926992
 30
0.0
 10
15.23051702774422
 20
28.3638442258342
 30
0.0
 10
15.2913169367398
 20
28.27687024342054
 30
0.0
 10
15.47656627836493
 20
28.28996712150927
 30
0.0
 10
15.55569166865394
 20
28.31933516493037
 30
0.0
 10
15.7057554573131
 20
28.41001087874529
 30
0.0
 10
15.7610813985557
 20
28.44795612243589
 30
0.0
 10
15.88380903688931
 20
28.54092170505022
 30
0.0
 10
15.95184378433203
 20
28.59652305653366
 30
0.0
 10
16.16938316173034
 20
28.78557361763527
 30
0.0
 10
16.33303309839244
 20
28.94146102446805
 30
0.0
 10
16.69227143622521
 20
29.30694107342999
 30
0.0
 10
16.8830844863284
 20
29.51181281356909
 30
0.0
 10
17.2706903130545
 20
29.94662512943919
 30
0.0
 10
17.47002189829059
 20
30.17943791360707
 30
0.0
 10
17.8667951020762
 20
30.66111851300794
 30
0.0
 10
18.06308719465795
 20
30.90847506894828
 30
0.0
 10
18.64311903616167
 20
31.66721124075174
 30
0.0
 10
19.01797918833416
 20
32.19503324887179
 30
0.0
 10
19.73304593372148
 20
33.29114339911238
 30
0.0
 10
20.07001060443913
 20
33.85457690377635
 30
0.0
 10
20.38203110018309
 20
34.43351409580097
 30
0.0
  0
SPLINE
  5
8C
330
1F
100
AcDbEntity
  8
0
  6
Continuous
 62
     7
370
    15
100
AcDbSpline
210
0.0
220
0.0
230
1.0
 70
     8
 71
     3
 72
    50
 73
    46
 74
     0
 42
0.00000001
 43
0.00000001
 40
0.0
 40
0.0
 40
0.0
 40
0.0
 40
0.0625000000000003
 40
0.0625000000000003
 40
0.1250000000000006
 40
0.1250000000000006
 40
0.1875000000000009
 40
0.1875000000000009
 40
0.2500000000000012
 40
0.2500000000000012
 40
0.3125000000000016
 40
0.3125000000000016
 40
0.3437500000000011
 40
0.3437500000000011
 40
0.3750000000000006
 40
0.3750000000000006
 40
0.4062500000000003
 40
0.4062500000000003
 40
0.4374999999999999
 40
0.4374999999999999
 40
0.4687499999999996
 40
0.4687499999999996
 40
0.4999999999999992
 40
0.4999999999999992
 40
0.5312499999999989
 40
0.5312499999999989
 40
0.5624999999999987
 40
0.5624999999999987
 40
0.5937499999999983
 40
0.5937499999999983
 40
0.624999999999998
 40
0.624999999999998
 40
0.6562499999999978
 40
0.6562499999999978
 40
0.6874999999999974
 40
0.6874999999999974
 40
0.749999999999998
 40
0.749999999999998
 40
0.8124999999999986
 40
0.8124999999999986
 40
0.874999999999999
 40
0.874999999999999
 40
0.9374999999999996
 40
0.9374999999999996
 40
1.0
 40
1.0
 40
1.0
 40
1.0
 10
83.90340466867352
 20
39.08712462785103
 30
0.0
 10
84.3052863246082
 20
39.3191259695347
 30
0.0
 10
84.68989369530452
 20
39.56922798143754
 30
0.0
 10
85.40664353802791
 20
40.09538003686323
 30
0.0
 10
85.74100689946137
 20
40.37255349499741
 30
0.0
 10
86.36064614288736
 20
40.95952758813238
 30
0.0
 10
86.64596334635408
 20
41.2692532463409
 30
0.0
 10
87.16309407203346
 20
41.9310077870409
 30
0.0
 10
87.3963454290713
 20
42.28578886239038
 30
0.0
 10
87.79054065694241
 20
43.03826806001858
 30
0.0
 10
87.95239657668276
 20
43.43557555587517
 30
0.0
 10
88.13213145024919
 20
44.07952041407369
 30
0.0
 10
88.18132897368186
 20
44.3025773308723
 30
0.0
 10
88.25402273518903
 20
44.75968112655636
 30
0.0
 10
88.277869715371
 20
44.99469477832171
 30
0.0
 10
88.29736605772463
 20
45.48115658635209
 30
0.0
 10
88.29287926832738
 20
45.73460208913485
 30
0.0
 10
88.25074268639484
 20
46.25342325084971
 30
0.0
 10
88.21351913047967
 20
46.51662755881884
 30
0.0
 10
88.10271062258485
 20
47.05283063121881
 30
0.0
 10
88.02798722229316
 20
47.32819052829463
 30
0.0
 10
87.84475214861631
 20
47.8641149818607
 30
0.0
 10
87.73598136913493
 20
48.12746791867885
 30
0.0
 10
87.4811730522346
 20
48.64424061413383
 30
0.0
 10
87.3406749470789
 20
48.88638534385754
 30
0.0
 10
87.0356602372273
 20
49.34023020546692
 30
0.0
 10
86.86951372418936
 20
49.55323447911493
 30
0.0
 10
86.52796042887661
 20
49.93365863851013
 30
0.0
 10
86.35078159695479
 20
50.10390237250451
 30
0.0
 10
85.985913931366
 20
50.40771754331192
 30
0.0
 10
85.80226650560587
 20
50.53806401725717
 30
0.0
 10
85.4313900621139
 20
50.76407497781387
 30
0.0
 10
85.24416290521397
 20
50.85965692690385
 30
0.0
 10
84.8650241243192
 20
51.02084793472807
 30
0.0
 10
84.67340952112315
 20
51.08610992716488
 30
0.0
 10
84.10248166040257
 20
51.23932401941131
 30
0.0
 10
83.72241712010295
 20
51.28734315854459
 30
0.0
 10
82.95331265737082
 20
51.30112209022894
 30
0.0
 10
82.56235937894247
 20
51.26580910649471
 30
0.0
 10
81.78435790717795
 20
51.12869869484123
 30
0.0
 10
81.39521054898472
 20
51.02715168827564
 30
0.0
 10
80.61124298994571
 20
50.76822748500503
 30
0.0
 10
80.21645912310156
 20
50.610767891838
 30
0.0
 10
79.41820010937792
 20
50.24378139086346
 30
0.0
 10
79.01382823137394
 20
50.03346557723676
 30
0.0
 10
78.61291826593393
 20
49.80202518053562
 30
0.0
  0
SPLINE
  5
8F
330
1F
100
AcDbEntity
  8
0
  6
Continuous
 62
     7
370
    15
100
AcDbSpline
210
0.0
220
0.0
230
1.0
 70
     8
 71
     3
 72
    48
 73
    44
 74
     0
 42
0.00000001
 43
0.00000001
 40
0.0
 40
0.0
 40
0.0
 40
0.0
 40
0.124999999999998
 40
0.124999999999998
 40
0.1874999999999978
 40
0.1874999999999978
 40
0.2499999999999976
 40
0.2499999999999976
 40
0.2812499999999982
 40
0.2812499999999982
 40
0.3124999999999987
 40
0.3124999999999987
 40
0.3749999999999998
 40
0.3749999999999998
 40
0.437500000000001
 40
0.437500000000001
 40
0.4687500000000013
 40
0.4687500000000013
 40
0.5000000000000016
 40
0.5000000000000016
 40
0.5312500000000019
 40
0.5312500000000019
 40
0.5625000000000021
 40
0.5625000000000021
 40
0.5937500000000024
 40
0.5937500000000024
 40
0.6250000000000027
 40
0.6250000000000027
 40
0.656250000000003
 40
0.656250000000003
 40
0.6875000000000032
 40
0.6875000000000032
 40
0.7187500000000036
 40
0.7187500000000036
 40
0.7500000000000038
 40
0.7500000000000038
 40
0.8125000000000029
 40
0.8125000000000029
 40
0.8750000000000019
 40
0.8750000000000019
 40
0.9375000000000009
 40
0.9375000000000009
 40
1.0
 40
1.0
 40
1.0
 40
1.0
 10
74.95331880577415
 20
53.94978705595998
 30
0.0
 10
75.76104650091354
 20
54.41607832907513
 30
0.0
 10
76.49592808833701
 20
54.8500711923588
 30
0.0
 10
77.47493007608634
 20
55.46781337840138
 30
0.0
 10
77.78158237189952
 20
55.66932957516342
 30
0.0
 10
78.33646457109369
 20
56.06350155274978
 30
0.0
 10
78.58342735166933
 20
56.25502294819625
 30
0.0
 10
78.8975513531416
 20
56.54136490697625
 30
0.0
 10
78.99280433525935
 20
56.6366825274563
 30
0.0
 10
79.16133021709226
 20
56.8288302782243
 30
0.0
 10
79.23473493716807
 20
56.92598260606273
 30
0.0
 10
79.41255779884251
 20
57.21823082477606
 30
0.0
 10
79.47742705318399
 20
57.414882109697
 30
0.0
 10
79.45255232852631
 20
57.83469796535346
 30
0.0
 10
79.36258132843943
 20
58.05172831004501
 30
0.0
 10
79.06402841483167
 20
58.39983075145568
 30
0.0
 10
78.9396380653
 20
58.51650612364885
 30
0.0
 10
78.63594944106244
 20
58.75290729480569
 30
0.0
 10
78.45432447997531
 20
58.87361049798117
 30
0.0
 10
78.05167627610584
 20
59.10586001224318
 30
0.0
 10
77.82815394410243
 20
59.21936000657515
 30
0.0
 10
77.34244300771061
 20
59.4378571600098
 30
0.0
 10
77.08788813303327
 20
59.5395333491995
 30
0.0
 10
76.55836142858449
 20
59.7285005295852
 30
0.0
 10
76.28324246935142
 20
59.81554718826209
 30
0.0
 10
75.73535942835674
 20
59.96929037496275
 30
0.0
 10
75.45978398580591
 20
60.0370188738134
 30
0.0
 10
74.90537833180484
 20
60.15527769569005
 30
0.0
 10
74.62603672963341
 20
60.20573746285677
 30
0.0
 10
74.07817073646045
 20
60.2878318843788
 30
0.0
 10
73.80766624150306
 20
60.31992474331736
 30
0.0
 10
73.27188328995524
 20
60.3675230303266
 30
0.0
 10
73.00661415911313
 20
60.3830156050286
 30
0.0
 10
72.48018501384922
 20
60.39799501232825
 30
0.0
 10
72.21816545627243
 20
60.39740841683463
 30
0.0
 10
71.44799849916176
 20
60.37246159000204
 30
0.0
 10
70.95262353316342
 20
60.32538224477358
 30
0.0
 10
69.98777868180004
 20
60.17548237119316
 30
0.0
 10
69.51841754387338
 20
60.07258411689732
 30
0.0
 10
68.60060174765749
 20
59.81197713439441
 30
0.0
 10
68.15243590121001
 20
59.65399899848763
 30
0.0
 10
67.2888798612951
 20
59.28883650628715
 30
0.0
 10
66.87149480569754
 20
59.08114671135021
 30
0.0
 10
66.46803743153562
 20
58.84823572689621
 30
0.0
  0
SPLINE
  5
93
330
1F
100
AcDbEntity
  8
0
  6
Continuous
 62
     7
370
    15
100
AcDbSpline
210
0.0
220
0.0
230
1.0
 70
     8
 71
     3
 72
    48
 73
    44
 74
     0
 42
0.00000001
 43
0.00000001
 40
0.0
 40
0.0
 40
0.0
 40
0.0
 40
0.1250000000000034
 40
0.1250000000000034
 40
0.1875000000000043
 40
0.1875000000000043
 40
0.2500000000000052
 40
0.2500000000000052
 40
0.2812500000000051
 40
0.2812500000000051
 40
0.3125000000000049
 40
0.3125000000000049
 40
0.3750000000000045
 40
0.3750000000000045
 40
0.4375000000000042
 40
0.4375000000000042
 40
0.4687500000000042
 40
0.4687500000000042
 40
0.5000000000000042
 40
0.5000000000000042
 40
0.5312500000000044
 40
0.5312500000000044
 40
0.5625000000000044
 40
0.5625000000000044
 40
0.5937500000000046
 40
0.5937500000000046
 40
0.6250000000000046
 40
0.6250000000000046
 40
0.6562500000000047
 40
0.6562500000000047
 40
0.6875000000000047
 40
0.6875000000000047
 40
0.7187500000000048
 40
0.7187500000000048
 40
0.7500000000000048
 40
0.7500000000000048
 40
0.8125000000000037
 40
0.8125000000000037
 40
0.8750000000000024
 40
0.8750000000000024
 40
0.9375000000000012
 40
0.9375000000000012
 40
1.0
 40
1.0
 40
1.0
 40
1.0
 10
82.9190983568307
 20
25.52965811758341
 30
0.0
 10
83.72682605197012
 20
25.99594939069856
 30
0.0
 10
84.48506854174909
 20
26.55943392375724
 30
0.0
 10
85.55709305076273
 20
27.5572767749491
 30
0.0
 10
85.90518489001867
 20
27.91758019319034
 30
0.0
 10
86.57442273910017
 20
28.68811537671558
 30
0.0
 10
86.89374514448768
 20
29.09581099969191
 30
0.0
 10
87.35264126005683
 20
29.74497843288511
 30
0.0
 10
87.50225897359142
 20
29.96767238365723
 30
0.0
 10
87.7953001165668
 20
30.42697530330327
 30
0.0
 10
87.9391598142398
 20
30.66441992893721
 30
0.0
 10
88.35522168303248
 20
31.38793625027762
 30
0.0
 10
88.61403372269812
 20
31.88769407367793
 30
0.0
 10
89.09685889936607
 20
32.92909109133996
 30
0.0
 10
89.31355187389778
 20
33.45529253330606
 30
0.0
 10
89.59033879039285
 20
34.22718295872227
 30
0.0
 10
89.67193625286276
 20
34.4743930542941
 30
0.0
 10
89.8129971346271
 20
34.94566516608906
 30
0.0
 10
89.87253405848212
 20
35.17099856309856
 30
0.0
 10
89.96189749726489
 20
35.57204079592965
 30
0.0
 10
89.9928952549944
 20
35.75165493800871
 30
0.0
 10
90.02651589995413
 20
36.06546081695415
 30
0.0
 10
90.0287538717708
 20
36.19510449074497
 30
0.0
 10
90.00688740662216
 20
36.40838962168775
 30
0.0
 10
89.98243524055324
 20
36.49142121658826
 30
0.0
 10
89.91127747678429
 20
36.61356889773484
 30
0.0
 10
89.86448789015851
 20
36.65387301320208
 30
0.0
 10
89.75031687286643
 20
36.70092140380669
 30
0.0
 10
89.68263208212932
 20
36.70738834861919
 30
0.0
 10
89.53160041303134
 20
36.6930118475039
 30
0.0
 10
89.44788294884036
 20
36.67237798911293
 30
0.0
 10
89.26517069669943
 20
36.6098516179402
 30
0.0
 10
89.16616446575227
 20
36.56792552161017
 30
0.0
 10
88.95334049465175
 20
36.46658800185713
 30
0.0
 10
88.83907384189894
 20
36.40689915664145
 30
0.0
 10
88.47954490162557
 20
36.20876767776843
 30
0.0
 10
88.21670375878399
 20
36.0512705346224
 30
0.0
 10
87.64708834063889
 20
35.70330850686285
 30
0.0
 10
87.34026842391229
 20
35.51266050562612
 30
0.0
 10
86.68244699866037
 20
35.1075698257056
 30
0.0
 10
86.33130766830845
 20
34.89303892346146
 30
0.0
 10
85.59612526177023
 20
34.45238529631669
 30
0.0
 10
85.21070846727034
 20
34.22538287615983
 30
0.0
 10
84.8072510931084
 20
33.99247189170585
 30
0.0
  0
SPLINE
  5
98
330
1F
100
AcDbEntity
  8
0
  6
Continuous
 62
     7
370
    15
100
AcDbSpline
210
0.0
220
0.0
230
1.0
 70
     8
 71
     3
 72
    10
 73
     6
 74
     0
 42
0.00000001
 43
0.00000001
 40
0.0
 40
0.0
 40
0.0
 40
0.0
 40
0.1436564973156761
 40
0.7155590223612535
 40
1.0
 40
1.0
 40
1.0
 40
1.0
 10
62.80843797137599
 20
58.92575745048219
 30
0.0
 10
62.96812762494343
 20
59.01520875010105
 30
0.0
 10
63.76354846927052
 20
59.4607694153005
 30
0.0
 10
64.89617011229136
 20
59.985246347543
 30
0.0
 10
65.77927263004337
 20
60.16547554200623
 30
0.0
 10
66.07260181712451
 20
60.22534003342989
 30
0.0
  0
LINE
  5
9B
330
1F
100
AcDbEntity
  8
0
  6
Continuous
 62
     7
370
    15
100
AcDbLine
 10
-100.1790518179
 20
-65.4339892789
 30
0.0
 11
-98.98256677
 21
-63.924703788
 31
0.0
  0
LINE
  5
9C
330
1F
100
AcDbEntity
  8
0
  6
Continuous
 62
     7
370
    15
100
AcDbLine
 10
-6.5352901038
 20
3.1552728947
 30
0.0
 11
-105.3922803202
 21
-53.913652811
 31
0.0
  0
LINE
  5
9D
330
1F
100
AcDbEntity
  8
0
  6
Continuous
 62
     7
370
    15
100
AcDbLine
 10
-99.1941173416
 20
-64.1915606191
 30
0.0
 11
-0.535777708
 21
-7.2373134538
 31
0.0
  0
LINE
  5
9E
330
1F
100
AcDbEntity
  8
0
  6
Continuous
 62
     7
370
    15
100
AcDbLine
 10
6.4636534204
 20
-19.3619975272
 30
0.0
 11
9.9991873264
 21
-17.3209772476
 31
0.0
  0
LINE
  5
9F
330
1F
100
AcDbEntity
  8
0
  6
Continuous
 62
     7
370
    15
100
AcDbLine
 10
38.2834585738
 20
-0.9928150112
 30
0.0
 11
80.709865445
 21
23.4994283435
 31
0.0
  0
LINE
  5
A0
330
1F
100
AcDbEntity
  8
0
  6
Continuous
 62
     7
370
    15
100
AcDbLine
 10
-125.5114536606
 20
-77.762739951
 30
0.0
 11
-136.1180553784
 21
-71.6396791124
 31
0.0
  0
LINE
  5
A1
330
1F
100
AcDbEntity
  8
0
  6
Continuous
 62
     7
370
    15
100
AcDbLine
 10
-125.5114536606
 20
-79.3958215748
 30
0.0
 11
-125.5114536606
 21
-77.762739951
 31
0.0
  0
LINE
  5
A2
330
1F
100
AcDbEntity
  8
0
  6
Continuous
 62
     7
370
    15
100
AcDbLine
 10
-128.2410528244
 20
-79.3386181606
 30
0.0
 11
-125.5114536606
 21
-77.762739951
 31
0.0
  0
LINE
  5
A3
330
1F
100
AcDbEntity
  8
0
  6
Continuous
 62
     7
370
    15
100
AcDbLine
 10
-128.2410528244
 20
-79.3386181606
 30
0.0
 11
-137.6310969017
 21
-73.9178610988
 31
0.0
  0
LINE
  5
A4
330
1F
100
AcDbEntity
  8
0
  6
Continuous
 62
     7
370
    15
100
AcDbLine
 10
-137.6310969017
 20
-73.9178610988
 30
0.0
 11
-136.1180553784
 21
-71.6396791124
 31
0.0
  0
LINE
  5
A5
330
1F
100
AcDbEntity
  8
0
  6
Continuous
 62
     7
370
    15
100
AcDbLine
 10
-128.2410528244
 20
-79.5668639238
 30
0.0
 11
-125.5114536606
 21
-79.3958215748
 31
0.0
  0
LINE
  5
A6
330
1F
100
AcDbEntity
  8
0
  6
Continuous
 62
     7
370
    15
100
AcDbLine
 10
-128.2410528244
 20
-79.5668639238
 30
0.0
 11
-128.2410528244
 21
-79.3386181606
 31
0.0
  0
LINE
  5
A7
330
1F
100
AcDbEntity
  8
0
  6
Continuous
 62
     7
370
    15
100
AcDbLine
 10
-137.6310969017
 20
-73.9178610988
 30
0.0
 11
-137.6310969017
 21
-74.1461068621
 31
0.0
  0
LINE
  5
A8
330
1F
100
AcDbEntity
  8
0
  6
Continuous
 62
     7
370
    15
100
AcDbLine
 10
-137.6310969017
 20
-74.1461068621
 30
0.0
 11
-128.2410528244
 21
-79.5668639238
 31
0.0
  0
LINE
  5
A9
330
1F
100
AcDbEntity
  8
0
  6
Continuous
 62
     7
370
    15
100
AcDbLine
 10
13.19272655
 20
-1.7332809633
 30
0.0
 11
9.6571926441
 21
-3.7743012428
 31
0.0
  0
LINE
  5
AA
330
1F
100
AcDbEntity
  8
0
  6
Continuous
 62
     7
370
    15
100
AcDbLine
 10
4.3667062413
 20
6.9405993098
 30
0.0
 11
7.9022401473
 21
8.9816195894
 31
0.0
  0
LINE
  5
AB
330
1F
100
AcDbEntity
  8
0
  6
Continuous
 62
     7
370
    15
100
AcDbLine
 10
-11.8650800586
 20
13.709185063
 30
0.0
 11
-13.19272655
 21
13.4987168892
 31
0.0
  0
LINE
  5
AC
330
1F
100
AcDbEntity
  8
0
  6
Continuous
 62
     7
370
    15
100
AcDbLine
 10
4.2426406871
 20
13.1293814648
 30
0.0
 11
0.7071067812
 21
11.0883611853
 31
0.0
  0
LINE
  5
AD
330
1F
100
AcDbEntity
  8
0
  6
Continuous
 62
     7
370
    15
100
AcDbLine
 10
10.5610390685
 20
-8.868953979
 30
0.0
 11
14.0965729745
 21
-6.8279336994
 31
0.0
  0
LINE
  5
AE
330
1F
100
AcDbEntity
  8
0
  6
Continuous
 62
     7
370
    15
100
AcDbLine
 10
-7.7781745931
 20
15.9868098562
 30
0.0
 11
-4.2426406871
 21
18.0278301358
 31
0.0
  0
LINE
  5
AF
330
1F
100
AcDbEntity
  8
0
  6
Continuous
 62
     7
370
    15
100
AcDbLine
 10
12.2084202382
 20
-15.2907474736
 30
0.0
 11
8.6728863322
 21
-17.3317677531
 31
0.0
  0
LINE
  5
B0
330
1F
100
AcDbEntity
  8
0
  6
Continuous
 62
     7
370
    15
100
AcDbLine
 10
-7.9022401473
 20
18.1053518593
 30
0.0
 11
-11.4377740532
 21
16.0643315798
 31
0.0
  0
LINE
  5
B1
330
1F
100
AcDbEntity
  8
0
  6
Continuous
 62
     7
370
    15
100
AcDbLine
 10
-16.728260456
 20
11.4576966096
 30
0.0
 11
-13.19272655
 21
13.4987168892
 31
0.0
  0
LINE
  5
B2
330
1F
100
AcDbEntity
  8
0
  6
Continuous
 62
     7
370
    15
100
AcDbLine
 10
1.7672684428
 20
-17.4861746526
 30
0.0
 11
-1.5046094253
 21
-19.3749895414
 31
0.0
  0
LINE
  5
B3
330
1F
100
AcDbEntity
  8
0
  6
Continuous
 62
     7
370
    15
100
AcDbLine
 10
83.9034046687
 20
39.0871246279
 30
0.0
 11
41.4769977975
 21
14.5948812732
 31
0.0
  0
LINE
  5
B4
330
1F
100
AcDbEntity
  8
0
  6
Continuous
 62
     7
370
    15
100
AcDbLine
 10
78.6129182659
 20
49.8020251805
 30
0.0
 11
36.1865113947
 21
25.3097818259
 31
0.0
  0
LINE
  5
B5
330
1F
100
AcDbEntity
  8
0
  6
Continuous
 62
     7
370
    15
100
AcDbLine
 10
74.9533188058
 20
53.949787056
 30
0.0
 11
32.5269119346
 21
29.4575437013
 31
0.0
  0
LINE
  5
B6
330
1F
100
AcDbEntity
  8
0
  6
Continuous
 62
     7
370
    15
100
AcDbLine
 10
66.4680374315
 20
58.8482357269
 30
0.0
 11
24.0416305603
 21
34.3559923722
 31
0.0
  0
LINE
  5
B7
330
1F
100
AcDbEntity
  8
0
  6
Continuous
 62
     7
370
    15
100
AcDbLine
 10
82.9190983568
 20
25.5296581176
 30
0.0
 11
40.4926914856
 21
1.0374147629
 31
0.0
  0
LINE
  5
B8
330
1F
100
AcDbEntity
  8
0
  6
Continuous
 62
     7
370
    15
100
AcDbLine
 10
84.8072510931
 20
33.9924718917
 30
0.0
 11
42.3808442219
 21
9.500228537
 31
0.0
  0
LINE
  5
B9
330
1F
100
AcDbEntity
  8
0
  6
Continuous
 62
     7
370
    15
100
AcDbLine
 10
62.8084379714
 20
58.9257574505
 30
0.0
 11
20.3820311002
 21
34.4335140958
 31
0.0
  0
LINE
  5
BA
330
1F
100
AcDbEntity
  8
0
  6
Continuous
 62
     7
370
    15
100
AcDbLine
 10
18.8580700085
 20
32.001247905
 30
0.0
 11
15.0915446974
 21
29.8268791256
 31
0.0
  0
LINE
  5
BB
330
1F
100
AcDbEntity
  8
0
  6
Continuous
 62
     7
370
    15
100
AcDbLine
 10
30.6868791634
 20
-0.7912387454
 30
0.0
 11
30.3151957281
 21
-1.0058070254
 31
0.0
  0
ARC
  5
BC
330
1F
100
AcDbEntity
  8
0
  6
Continuous
 62
     7
370
    15
100
AcDbCircle
 10
70.7106781187
 20
40.8204055911
 30
0.0
 40
20.0
100
AcDbArc
 50
299.9973117337
 51
103.4397214833
  0
ARC
  5
BD
330
1F
100
AcDbEntity
  8
0
  6
Continuous
 62
     7
370
    15
100
AcDbCircle
 10
-103.9065601086
 20
-61.5717143209
 30
0.0
 40
5.619118192232956
100
AcDbArc
 50
348.3059782483
 51
11.694021701
  0
ARC
  5
BE
330
1F
100
AcDbEntity
  8
0
  6
Continuous
 62
     7
370
    15
100
AcDbCircle
 10
-2.2486463551
 20
-4.8076428506
 30
0.0
 40
2.972745909505903
100
AcDbArc
 50
305.183062727
 51
6.1291176664
  0
ARC
  5
BF
330
1F
100
AcDbEntity
  8
0
  6
Continuous
 62
     7
370
    15
100
AcDbCircle
 10
-9.7947721345
 20
7.2073306404
 30
0.0
 40
9.008103071412753
100
AcDbArc
 50
77.0638644164
 51
100.5090921612
  0
ARC
  5
C0
330
1F
100
AcDbEntity
  8
0
  6
Continuous
 62
     7
370
    15
100
AcDbCircle
 10
-20.470954015
 20
-11.2855168328
 30
0.0
 40
30.80747760938548
100
AcDbArc
 50
36.2715827457
 51
46.572790365
  0
ARC
  5
C1
330
1F
100
AcDbEntity
  8
0
  6
Continuous
 62
     7
370
    15
100
AcDbCircle
 10
19.0002440276
 20
7.5023742453
 30
0.0
 40
14.64431695983623
100
AcDbArc
 50
182.1984796272
 51
230.3572703429
  0
ARC
  5
C2
330
1F
100
AcDbEntity
  8
0
  6
Continuous
 62
     7
370
    15
100
AcDbCircle
 10
-14.5969258205
 20
-10.7047462626
 30
0.0
 40
25.22485541414007
100
AcDbArc
 50
4.1735114342
 51
15.9469179071
  0
ARC
  5
C3
330
1F
100
AcDbEntity
  8
0
  6
Continuous
 62
     7
370
    15
100
AcDbCircle
 10
2.9467795278
 20
-13.3124440003
 30
0.0
 40
6.995946152291337
100
AcDbArc
 50
297.1608991912
 51
324.9338477995
  0
ARC
  5
C4
330
1F
100
AcDbEntity
  8
0
  6
Continuous
 62
     7
370
    15
100
AcDbCircle
 10
5.7928026861
 20
-2.0436580162
 30
0.0
 40
18.80498008402996
100
AcDbArc
 50
232.8390570054
 51
247.1663195273
  0
ARC
  5
C5
330
1F
100
AcDbEntity
  8
0
  6
Continuous
 62
     7
370
    15
100
AcDbCircle
 10
-20.6830404647
 20
-21.9769158712
 30
0.0
 40
15.90539858457972
100
AcDbArc
 50
18.1202743661
 51
39.7430419921
  0
ARC
  5
C6
330
1F
100
AcDbEntity
  8
0
  6
Continuous
 62
     7
370
    15
100
AcDbCircle
 10
-27.5433072357
 20
-0.1334593431
 30
0.0
 40
12.45328987602774
100
AcDbArc
 50
352.067683524
 51
37.262489158
  0
ARC
  5
C7
330
1F
100
AcDbEntity
  8
0
  6
Continuous
 62
     7
370
    15
100
AcDbCircle
 10
-4.5883261361
 20
6.6227589829
 30
0.0
 40
13.06731139688363
100
AcDbArc
 50
158.284229755
 51
176.5610434529
  0
ARC
  5
C8
330
1F
100
AcDbEntity
  8
0
  6
Continuous
 62
     7
370
    15
100
AcDbCircle
 10
6.4548317065
 20
-11.2469955037
 30
0.0
 40
7.032475452159979
100
AcDbArc
 50
300.2648793392
 51
324.8995852393
  0
ARC
  5
C9
330
1F
100
AcDbEntity
  8
0
  6
Continuous
 62
     7
370
    15
100
AcDbCircle
 10
-11.0613919145
 20
-8.663725983
 30
0.0
 40
25.22485541413939
100
AcDbArc
 50
4.1735114342
 51
15.9469179071
  0
ARC
  5
CA
330
1F
100
AcDbEntity
  8
0
  6
Continuous
 62
     7
370
    15
100
AcDbCircle
 10
-16.935420109
 20
-9.2444965533
 30
0.0
 40
30.80747760938448
100
AcDbArc
 50
36.2715827457
 51
46.572790365
  0
ARC
  5
CB
330
1F
100
AcDbEntity
  8
0
  6
Continuous
 62
     7
370
    15
100
AcDbCircle
 10
-6.2592382286
 20
9.24835092
 30
0.0
 40
9.008103071412686
100
AcDbArc
 50
77.0638644164
 51
100.5090921612
  0
ARC
  5
CC
330
1F
100
AcDbEntity
  8
0
  6
Continuous
 62
     7
370
    15
100
AcDbCircle
 10
22.0250330188
 20
25.5765131564
 30
0.0
 40
9.008103071413531
100
AcDbArc
 50
77.0638644164
 51
100.5090921612
  0
ARC
  5
CD
330
1F
100
AcDbEntity
  8
0
  6
Continuous
 62
     7
370
    15
100
AcDbCircle
 10
11.3488511374
 20
7.0836656824
 30
0.0
 40
30.80747761069953
100
AcDbArc
 50
36.2715827458
 51
46.5727903647
  0
ARC
  5
CE
330
1F
100
AcDbEntity
  8
0
  6
Continuous
 62
     7
370
    15
100
AcDbCircle
 10
17.2228793329
 20
7.6644362534
 30
0.0
 40
25.2248554141424
100
AcDbArc
 50
4.1735114342
 51
15.9469179071
  0
ARC
  5
CF
330
1F
100
AcDbEntity
  8
0
  6
Continuous
 62
     7
370
    15
100
AcDbCircle
 10
34.7665846812
 20
5.0567385157
 30
0.0
 40
6.995946152291698
100
AcDbArc
 50
297.1608991912
 51
324.9338477995
  0
ARC
  5
D0
330
1F
100
AcDbEntity
  8
0
  6
Continuous
 62
     7
370
    15
100
AcDbCircle
 10
27.0932148788
 20
25.0350417217
 30
0.0
 40
12.92291735049606
100
AcDbArc
 50
158.234942378
 51
175.3646666949
  0
ARC
  5
D1
330
1F
100
AcDbEntity
  8
0
  6
Continuous
 62
     7
370
    15
100
AcDbCircle
 10
53.7752580096
 20
31.5759090379
 30
0.0
 40
30.80747760938584
100
AcDbArc
 50
36.2715827457
 51
46.572790365
  0
ARC
  5
D2
330
1F
100
AcDbEntity
  8
0
  6
Continuous
 62
     7
370
    15
100
AcDbCircle
 10
59.6492862041
 20
32.1566796081
 30
0.0
 40
25.22485541413761
100
AcDbArc
 50
4.1735114342
 51
15.9469179071
  0
ARC
  5
D3
330
1F
100
AcDbEntity
  8
0
  6
Continuous
 62
     7
370
    15
100
AcDbCircle
 10
64.45143989
 20
50.0687565111
 30
0.0
 40
9.008103071412606
100
AcDbArc
 50
77.0638644164
 51
100.5090921612
  0
ARC
  5
D4
330
1F
100
AcDbEntity
  8
0
  6
Continuous
 62
     8
370
    15
100
AcDbCircle
 10
77.1655098252
 20
29.5734100874
 30
0.0
 40
7.032475452159546
100
AcDbArc
 50
300.2648793392
 51
324.8995852393
  0
ENDSEC
  0
SECTION
  2
OBJECTS
  0
DICTIONARY
  5
C
330
0
100
AcDbDictionary
281
     1
  3
ACAD_GROUP
350
D
  3
ACAD_LAYOUT
350
1A
  3
ACAD_MLINESTYLE
350
17
  3
ACAD_PLOTSETTINGS
350
19
  3
ACAD_PLOTSTYLENAME
350
E
  0
DICTIONARY
  5
D
102
{ACAD_REACTORS
330
C
102
}
330
C
100
AcDbDictionary
281
     1
  0
DICTIONARY
  5
1A
102
{ACAD_REACTORS
330
C
102
}
330
C
100
AcDbDictionary
281
     1
  3
Layout1
350
1E
  3
Layout2
350
26
  3
Model
350
22
  0
DICTIONARY
  5
17
102
{ACAD_REACTORS
330
C
102
}
330
C
100
AcDbDictionary
281
     1
  3
Standard
350
18
  0
DICTIONARY
  5
19
102
{ACAD_REACTORS
330
C
102
}
330
C
100
AcDbDictionary
281
     1
  0
ACDBDICTIONARYWDFLT
  5
E
102
{ACAD_REACTORS
330
C
102
}
330
C
100
AcDbDictionary
281
     1
  3
Normal
350
F
100
AcDbDictionaryWithDefault
340
F
  0
LAYOUT
  5
1E
102
{ACAD_REACTORS
330
1A
102
}
330
1A
100
AcDbPlotSettings
  1

  2
none_device
  4

  6

 40
0.0
 41
0.0
 42
0.0
 43
0.0
 44
0.0
 45
0.0
 46
0.0
 47
0.0
 48
0.0
 49
0.0
140
0.0
141
0.0
142
1.0
143
1.0
 70
   688
 72
     0
 73
     0
 74
     5
  7

 75
    16
147
1.0
148
0.0
149
0.0
100
AcDbLayout
  1
Layout1
 70
     1
 71
     1
 10
0.0
 20
0.0
 11
420.0
 21
297.0
 12
0.0
 22
0.0
 32
0.0
 14
1.0000000000E+20
 24
1.0000000000E+20
 34
1.0000000000E+20
 15
-1.0000000000E+20
 25
-1.0000000000E+20
 35
-1.0000000000E+20
146
0.0
 13
0.0
 23
0.0
 33
0.0
 16
1.0
 26
0.0
 36
0.0
 17
0.0
 27
1.0
 37
0.0
 76
     0
330
1B
  0
LAYOUT
  5
26
102
{ACAD_REACTORS
330
1A
102
}
330
1A
100
AcDbPlotSettings
  1

  2
none_device
  4

  6

 40
0.0
 41
0.0
 42
0.0
 43
0.0
 44
0.0
 45
0.0
 46
0.0
 47
0.0
 48
0.0
 49
0.0
140
0.0
141
0.0
142
1.0
143
1.0
 70
   688
 72
     0
 73
     0
 74
     5
  7

 75
    16
147
1.0
148
0.0
149
0.0
100
AcDbLayout
  1
Layout2
 70
     1
 71
     2
 10
0.0
 20
0.0
 11
0.0
 21
0.0
 12
0.0
 22
0.0
 32
0.0
 14
0.0
 24
0.0
 34
0.0
 15
0.0
 25
0.0
 35
0.0
146
0.0
 13
0.0
 23
0.0
 33
0.0
 16
1.0
 26
0.0
 36
0.0
 17
0.0
 27
1.0
 37
0.0
 76
     0
330
23
  0
LAYOUT
  5
22
102
{ACAD_REACTORS
330
1A
102
}
330
1A
100
AcDbPlotSettings
  1

  2
none_device
  4
ANSI_A_(11.00_x_8.50_Inches)
  6

 40
6.35
 41
19.05
 42
6.35000508
 43
19.05000254
 44
279.4
 45
215.9
 46
161.7689526791
 47
100.2544319105
 48
0.0
 49
0.0
140
0.0
141
0.0
142
0.0476916675
143
1.0
 70
  1696
 72
     0
 73
     0
 74
     0
  7

 75
     0
147
0.0179189148
148
0.0
149
0.0
100
AcDbLayout
  1
Model
 70
     1
 71
     0
 10
0.0
 20
0.0
 11
420.0
 21
297.0
 12
0.0
 22
0.0
 32
0.0
 14
-137.6310969017
 24
-79.5668639238
 34
0.0
 15
90.7106781187
 25
60.8204055911
 35
0.0
146
0.0
 13
0.0
 23
0.0
 33
0.0
 16
1.0
 26
0.0
 36
0.0
 17
0.0
 27
1.0
 37
0.0
 76
     0
330
1F
331
29
  0
MLINESTYLE
  5
18
102
{ACAD_REACTORS
330
17
102
}
330
17
100
AcDbMlineStyle
  2
Standard
 70
     0
  3

 62
   256
 51
90.0
 52
90.0
 71
     2
 49
0.5
 62
   256
  6
BYLAYER
 49
-0.5
 62
   256
  6
BYLAYER
  0
ACDBPLACEHOLDER
  5
F
102
{ACAD_REACTORS
330
E
102
}
330
E
  0
ENDSEC
  0
EOF
